<?xml version="1.0" standalone="yes"?>
<svg xmlns="http://www.w3.org/2000/svg" width="640" height="110">
<path style="fill:#010101; stroke:none;" d="M0 0L0 39L18 33L18 32C9.15804 31.595 -5.28657 23.5289 3.57253 13.3295C8.08742 8.13151 16.5097 7.00729 23 7.00771C29.3793 7.00813 38.4405 8.46107 42.3966 14.1049C49.9183 24.8354 35.504 31.6114 27 32L27 34C53.7965 36.3543 59 62.5304 59 84C59 93.1267 61.2038 103.027 53 109L53 110L90 110L90 109C76.6757 102.005 84.6508 80.2309 81.4421 68C78.978 58.6073 61.4373 53.0658 67.0278 42.0039C74.9618 26.3047 94.9966 36.3356 107 36.6057C114.323 36.7705 122.622 32.4971 130 31.4282C153.532 28.0191 185.527 28.6943 203.985 46.0934C207.22 49.1422 210.404 52.7886 212.005 57C213.752 61.5923 213 67.1747 213 72C213 83.6658 217.141 102.55 205 109L205 110L253 110L253 109C226.765 105.464 202.729 73.6948 227.004 52.1852C245.86 35.4778 284.394 32.3799 308 38C308 25.3495 304.41 9.25584 316 1L287 0L223 0L0 0z"/>
<path style="fill:#3945f7; stroke:none;" d="M308 71C307.05 83.5958 289.893 85.8619 280 82.9568C276.511 81.9323 272.639 78.9573 269 78.9282C262.734 78.8783 255.757 86.3172 249 87.5355C236.415 89.8046 229.13 83.5465 218 80C219.315 92.8387 231.498 102.779 243 106.91C252.533 110.333 262.039 110 272 110C296.352 110 345.414 117.369 355.637 87C361.315 70.1299 357 45.7468 357 28C357 21.4353 358.691 12.0174 355.543 6.04012C350.733 -3.09293 319.19 -3.41227 312.133 3.22839C307.01 8.04985 304.139 34.3604 310.318 39.0617C319.292 45.8898 332.541 44.9159 341.981 53.3009C355.252 65.088 335.515 72.7263 325 72.946C319.294 73.0652 313.697 71.2446 308 71z"/>
<path style="fill:#010101; stroke:none;" d="M350 0L350 1C360.707 9.60516 357 26.57 357 39C357 64.538 363.327 93.2012 335 105.124C330.586 106.982 325.728 108.304 321 109L321 110L368 110L368 109C358.896 101.981 361 92.4825 361 82C361 55.7068 372.501 33.0033 402 33L402 32C381.344 31.0561 380.528 10.2514 401 7.30016C411.648 5.76508 440.93 15.2489 422.981 28.3511C418.852 31.3647 413.808 31.8149 409 33L409 34C414.814 34.8754 422.108 38.2227 422.667 45C423.357 53.3737 412.719 56.8453 409.009 63.0039C400.872 76.5118 413.486 99.9417 398 109L398 110L640 110L640 0L350 0z"/>
<path style="fill:#23c5ed; stroke:none;" d="M16 7.43904C7.05987 8.84686 -6.22396 18.0865 4.14815 27.6065C9.98155 32.9606 20.5953 33.5748 28 32.4097C36.7283 31.0364 52.8064 21.5363 40.8519 11.6489C34.5542 6.44024 23.6547 6.23365 16 7.43904z"/>
<path style="fill:#3945f7; stroke:none;" d="M399 7.46451C390.209 9.04953 377.502 19.4034 388.228 28.1466C395.084 33.7352 406.873 33.4762 415 31.9043C423.875 30.1877 434.141 20.1332 424.656 11.8002C418.485 6.3791 406.671 6.08147 399 7.46451M125 65L128 65C135.369 55.0824 160.077 52.3294 166.821 65.0432C172.682 76.092 159.534 105.033 176.001 109.566C180.884 110.911 186.969 110 192 110C196.458 110 201.776 110.747 205.985 108.991C211.971 106.493 212.969 100.796 212.999 95C213.068 81.7172 216.989 61.0261 208.471 50.0008C193.977 31.2418 163.742 29.0873 142 30.0394C132.985 30.4341 123.671 31.9334 115 34.4275C112.747 35.0754 107.636 36.0007 107.636 39.135C107.636 42.5234 112.87 45.8277 114.96 48.0039C119.778 53.0205 122.514 58.5931 125 65M15 33.439C5.24725 34.9623 -5.94731 41.9818 1.02778 53.6752C4.74832 59.9124 12.5 61.8452 13.7863 70C15.3429 79.8689 11.3357 96.1758 16.179 104.895C20.7022 113.038 43.0342 111.226 51 109.772C63.1868 107.546 59 87.013 59 78C59 52.7051 43.8335 28.9357 15 33.439z"/>
<path style="fill:#23c5ed; stroke:none;" d="M107 37C96.2271 32.8514 60.2832 28.051 66.4336 49.9853C68.7603 58.2829 79.8337 60.5466 81.6597 70C83.4767 79.4067 78.2666 99.3572 85.3179 106.606C91.1695 112.621 121.682 112.999 125.972 104.956C130.051 97.3095 127.667 78.6392 126.942 70.0394C126.373 63.2826 119.996 53.122 115.532 48.1705C112.152 44.4208 107.241 42.4207 107 37M391 33.4645C365.186 38.1187 361 62.3758 361 84C361 90.2273 358.952 100.791 363.318 105.811C369.227 112.605 387.752 111.181 396 109.775C411.562 107.123 404.672 79.2496 407.39 68C409.497 59.2829 419.802 57.0336 422.346 48.9853C427.595 32.3809 400.894 31.6806 391 33.4645M217 82L218 82L219 79C232.055 88.2699 249.097 91.6142 262.981 81.5571C268.77 77.3636 269.689 70.3783 277 67.7647C288.398 63.6901 297.484 68.179 308 72C317.942 65.6205 335.978 78.5688 345.257 64.8951C352.861 53.6904 327.583 44.1278 320 42.4252C314.552 41.202 309.326 37.9476 304 37.1474C280.075 33.5521 231.189 35.0266 219.189 61C216.167 67.5407 217 74.9925 217 82z"/>
<path style="fill:#28aaef; stroke:none;" d="M106 38L106 41L107 41L106 38M308 38L309 39L308 38M309 39L310 40L309 39M310 40L310 41L314 41L310 40M107 41L108 42L107 41M315 41L315 42L319 42L315 41M109 42L110 43L109 42M320 42L320 43L323 43L320 42M110 43L111 44L110 43M324.667 43.3333L325.333 43.6667L324.667 43.3333M111 44L112 45L111 44M327 44L328 45L327 44M112 45L113 46L112 45M329.667 45.3333L330.333 45.6667L329.667 45.3333M331.667 46.3333L332.333 46.6667L331.667 46.3333M333 47L334 48L333 47M335 48L336 49L335 48M116 49L117 50L116 49M337 49L338 50L337 49M117 50L118 51L117 50M338 50L339 51L338 50M118 51L119 52L118 51M339 51L340 52L339 51M341 52L342 53L341 52M119 53L120 54L119 53M342 53L343 54L342 53z"/>
<path style="fill:#010101; stroke:none;" d="M0 54L0 110L22 110L22 109C13.0479 104.241 15.3405 95.6755 14.9606 87C14.3408 72.8449 14.44 60.871 0 54z"/>
<path style="fill:#28aaef; stroke:none;" d="M120.333 54.6667L120.667 55.3333L120.333 54.6667M343 54L344 55L343 54M344 55L345 56L344 55M121.333 56.6667L121.667 57.3333L121.333 56.6667M345 56L346 57L345 56z"/>
<path style="fill:#010101; stroke:none;" d="M121 109L121 110L175 110C166.434 100.585 168 91.0983 168 79C168 74.2339 169.237 67.2972 166.258 63.213C159.581 54.0607 132.318 53.3931 127.742 65.0154C122.49 78.354 134.33 99.2949 121 109z"/>
<path style="fill:#28aaef; stroke:none;" d="M346 57L347 58L346 57M122.333 58.6667L122.667 59.3333L122.333 58.6667M347.333 60.6667L347.667 61.3333L347.333 60.6667M123 61L124 62L123 61M124.333 63.6667L124.667 64.3333L124.333 63.6667M346.333 63.6667L346.667 64.3333L346.333 63.6667M125.667 65.3333L126.333 65.6667L125.667 65.3333M345 65L346 66L345 65z"/>
<path style="fill:#010101; stroke:none;" d="M281 66.4645C276.291 67.3138 263.203 72.5938 270.319 78.892C276.439 84.3092 287.357 84.9742 295 83.5324C299.653 82.6545 312.632 77.2589 305.681 71.108C299.754 65.8622 288.417 65.1267 281 66.4645z"/>
<path style="fill:#28aaef; stroke:none;" d="M344 66L345 67L344 66M343 67L344 68L343 67z"/>
<path style="fill:#3945f7; stroke:none;" d="M437 67.439C424.049 69.4785 407.624 83.9748 421.109 96.7863C430.818 106.011 453.706 104.976 464.941 99.081C469.583 96.6456 469.734 90.0919 463.945 89.1489C459.659 88.4507 431.64 97.0289 436.407 83.0432C440.074 72.2889 453.709 84.9514 460.696 80.821C466.218 77.5565 465.733 71.5154 459.995 69.1443C453.215 66.3429 444.147 66.3135 437 67.439z"/>
<path style="fill:#23c5ed; stroke:none;" d="M461 81C466.142 87.1677 468.653 96.3001 476.001 100.175C491.056 108.114 537.495 107.885 532.772 82C531.247 73.6471 521.262 70.2118 514 68.669C496.92 65.0404 472.021 66.4538 461 81z"/>
<path style="fill:#28aaef; stroke:none;" d="M218 68L219 69L218 68M341.667 68.3333L342.333 68.6667L341.667 68.3333M339.667 69.3333L340.333 69.6667L339.667 69.3333M308 70L308 71L312 71L308 70M336.667 70.3333L337.333 70.6667L336.667 70.3333z"/>
<path style="fill:#3945f7; stroke:none;" d="M555 74C552.103 70.6851 540.701 70.6196 538.607 75.2785C536.772 79.3622 542.668 101.553 546.317 103.972C547.943 105.05 550.134 104.979 552 104.992C561.697 105.054 560.983 100.885 562.669 93C563.331 89.9018 564.832 83.0556 569.029 83.0556C578.099 83.0556 575.808 99.4068 582.147 102.258C589.526 105.576 596.015 101.451 598.872 94.9961C600.07 92.2894 602.242 86.0556 605.938 86.0556C609.621 86.0556 611.065 92.3255 611.856 95C614.114 102.642 614.865 107.375 624 106.959C626.393 106.85 629.444 106.627 630.972 104.486C636.796 96.3292 625.523 76.8833 617.985 73.5332C607.659 68.9437 597.681 73.6486 589 79C582.876 66.1765 565.423 69.3498 555 74z"/>
<path style="fill:#28aaef; stroke:none;" d="M313 71L313 72L316 72L313 71M332.667 71.3333L333.333 71.6667L332.667 71.3333M405 71L406 72L405 71M319 72L319 73L330 73L319 72M267 78L268 79L267 78z"/>
<path style="fill:#010101; stroke:none;" d="M467 89C465.738 81.637 442.847 74.922 437.438 80.4336C428.938 89.0944 446.378 92.6505 452 91.24C457.207 89.9336 461.594 89.0036 467 89M497 78.5177C478.945 79.89 488.48 95.0884 502 93.8009C520.965 91.9949 511.697 77.4008 497 78.5177z"/>
<path style="fill:#28aaef; stroke:none;" d="M219 79L220 80L219 79M265 79L266 80L265 79M462 79L463 80L462 79M220.667 80.3333L221.333 80.6667L220.667 80.3333M264 80L265 81L264 80M222 81L223 82L222 81M263 81L264 82L263 81M223 82L224 83L223 82M261 82L262 83L261 82z"/>
<path style="fill:#ff3eff; stroke:none;" d="M303 82L304 83L303 82z"/>
<path style="fill:#28aaef; stroke:none;" d="M225 83L226 84L225 83M260 83L261 84L260 83M226.667 84.3333L227.333 84.6667L226.667 84.3333M258 84L259 85L258 84M228.667 85.3333L229.333 85.6667L228.667 85.3333M255.667 85.3333L256.333 85.6667L255.667 85.3333M231 86L231 87L234 87L231 86M252.667 86.3333L253.333 86.6667L252.667 86.3333M235 87L235 88L239 88L235 87M247 87L247 88L250 88L247 87M469 91L470 92L469 91z"/>
<path style="fill:#ff3eff; stroke:none;" d="M422 95L423 96L422 95z"/>
<path style="fill:#23c5ed; stroke:none;" d="M54 106L55 107L54 106z"/>
<path style="fill:#28aaef; stroke:none;" d="M98 109L98 110L103 110L98 109z"/>
</svg>
